<svg width="6" height="20" viewBox="0 0 6 20" fill="none" xmlns="http://www.w3.org/2000/svg">
<path fill-rule="evenodd" clip-rule="evenodd" d="M3 18C2.449 18 2 17.551 2 17C2 16.449 2.449 16 3 16C3.551 16 4 16.449 4 17C4 17.551 3.551 18 3 18ZM3 14C1.343 14 0 15.343 0 17C0 18.657 1.343 20 3 20C4.657 20 6 18.657 6 17C6 15.343 4.657 14 3 14ZM3 11C2.449 11 2 10.551 2 10C2 9.449 2.449 9 3 9C3.551 9 4 9.449 4 10C4 10.551 3.551 11 3 11ZM3 7C1.343 7 0 8.343 0 10C0 11.657 1.343 13 3 13C4.657 13 6 11.657 6 10C6 8.343 4.657 7 3 7ZM3 2C3.551 2 4 2.449 4 3C4 3.551 3.551 4 3 4C2.449 4 2 3.551 2 3C2 2.449 2.449 2 3 2ZM3 6C4.657 6 6 4.657 6 3C6 1.343 4.657 0 3 0C1.343 0 0 1.343 0 3C0 4.657 1.343 6 3 6Z" fill="#FFA61D"/>
</svg>
