<svg width="17" height="20" viewBox="0 0 17 20" fill="none" xmlns="http://www.w3.org/2000/svg">
<path fill-rule="evenodd" clip-rule="evenodd" d="M12 14H4V8C4 5.334 6 4 7.999 4H8.001C10 4 12 5.334 12 8V14ZM9 17C9 17.552 8.552 18 8 18C7.448 18 7 17.552 7 17V16H9V17ZM15 14C14.448 14 14 13.552 14 13V8C14 4.447 11.632 2.475 9 2.079V1C9 0.448 8.552 0 8 0C7.448 0 7 0.448 7 1V2.079C4.368 2.475 2 4.447 2 8V13C2 13.552 1.552 14 1 14C0.448 14 0 14.448 0 15C0 15.552 0.448 16 1 16H5V17C5 18.657 6.343 20 8 20C9.657 20 11 18.657 11 17V16H15C15.552 16 16 15.552 16 15C16 14.448 15.552 14 15 14Z" fill="black"/>
<path fill-rule="evenodd" clip-rule="evenodd" d="M13 9C14.6569 9 16 7.65685 16 6C16 4.34315 14.6569 3 13 3C11.3431 3 10 4.34315 10 6C10 7.65685 11.3431 9 13 9Z" fill="#FF0000" stroke="white" stroke-width="2"/>
</svg>
