<svg width="21" height="20" viewBox="0 0 21 20" fill="none" xmlns="http://www.w3.org/2000/svg">
<path fill-rule="evenodd" clip-rule="evenodd" d="M19.6146 19.004C18.9474 19.668 18.0298 20 17.1954 20C16.445 20 15.6105 19.668 15.0265 19.0872L13.4417 17.5096C12.3576 18.008 11.1064 18.2568 9.77196 18.2568C4.68302 18.2568 0.595703 14.1904 0.595703 9.128C0.595703 6.7216 1.51333 4.3984 3.26538 2.6552C5.01743 0.9128 7.35269 0 9.68796 0C14.7769 0 18.8642 4.0664 18.8642 9.128C18.8642 10.456 18.6138 11.6176 18.113 12.7792L19.6978 14.3568C20.9491 15.6016 20.8659 17.5936 19.6146 19.004ZM9.77196 1.66C7.76951 1.66 5.85105 2.4064 4.43341 3.8176C3.01497 5.228 2.26455 7.1368 2.26455 9.128C2.26455 13.2776 5.60064 16.5968 9.77196 16.5968C13.9425 16.5968 17.2794 13.2776 17.2794 9.128C17.2794 4.9792 13.9425 1.66 9.77196 1.66ZM18.5306 15.5184L17.2794 14.2736C16.6954 15.1864 15.8609 15.9336 14.9433 16.5968L16.1945 17.8424C16.7786 18.4232 17.7794 18.4232 18.4466 17.7592C19.1146 17.0952 19.1146 16.0992 18.5306 15.5184ZM11.0232 5.1448C9.93837 4.8128 8.85434 4.9792 7.85351 5.4768C6.85188 6.0584 6.18466 6.8872 5.85105 7.9672C5.68465 8.2984 5.35104 8.548 5.01743 8.548C4.93343 8.548 4.85022 8.548 4.76702 8.548C4.26621 8.4648 4.0158 7.9672 4.183 7.552C4.59982 6.0584 5.60064 4.8128 6.93588 4.0664C8.27032 3.32 9.85516 3.1536 11.3568 3.568C11.8568 3.6512 12.1072 4.1496 12.024 4.564C11.9408 4.9792 11.44 5.3104 11.0232 5.1448Z" fill="#C7C7CC"/>
</svg>
